<?xml version="1.0" standalone="no"?>
<!DOCTYPE svg PUBLIC "-//W3C//DTD SVG 20010904//EN"
 "http://www.w3.org/TR/2001/REC-SVG-20010904/DTD/svg10.dtd">
<svg version="1.0" xmlns="http://www.w3.org/2000/svg"
 width="280.000000pt" height="280.000000pt" viewBox="0 0 280.000000 280.000000"
 preserveAspectRatio="xMidYMid meet">

<g transform="translate(0.000000,280.000000) scale(0.100000,-0.100000)"
fill="#000000" stroke="none">
<path d="M1015 2373 c-26 -7 -494 -194 -565 -227 -65 -30 -114 -77 -128 -126
-17 -56 -38 -712 -24 -757 16 -54 128 -177 416 -454 234 -226 300 -279 343
-279 51 1 189 99 167 119 -5 5 -27 14 -49 21 -22 7 -89 37 -148 68 -225 116
-377 319 -424 566 -23 124 -14 326 21 432 14 44 34 88 43 96 10 9 103 51 206
92 333 135 345 143 367 221 14 52 1 132 -30 175 -33 47 -122 71 -195 53z"/>
<path d="M123 1139 c-48 -24 -98 -85 -115 -141 -24 -82 -16 -93 330 -440 282
-281 322 -318 361 -328 58 -15 100 -6 147 31 77 61 109 153 77 221 -26 54
-594 630 -648 657 -53 27 -99 27 -152 0z"/>
</g>
</svg>
