<?xml version="1.0" standalone="no"?>
<!DOCTYPE svg PUBLIC "-//W3C//DTD SVG 20010904//EN"
 "http://www.w3.org/TR/2001/REC-SVG-20010904/DTD/svg10.dtd">
<svg version="1.0" xmlns="http://www.w3.org/2000/svg"
 width="225.000000pt" height="225.000000pt" viewBox="0 0 225.000000 225.000000"
 preserveAspectRatio="xMidYMid meet">

<g transform="translate(0.000000,225.000000) scale(0.100000,-0.100000)"
fill="#000000" stroke="none">
<path d="M1160 1734 c-221 -43 -375 -201 -410 -420 -19 -119 16 -257 93 -364
l26 -35 -152 -153 c-159 -159 -163 -166 -114 -196 14 -9 42 14 170 142 l154
154 49 -32 c154 -97 372 -94 530 8 76 50 128 109 170 197 87 182 57 392 -77
539 -59 65 -125 109 -205 136 -58 21 -185 33 -234 24z m253 -101 c242 -114
322 -419 167 -635 -204 -285 -647 -211 -752 125 -59 190 34 411 212 502 70 36
114 45 210 42 83 -2 104 -7 163 -34z"/>
</g>
</svg>
